<svg
  width="30"
  height="30"
  viewBox="0 0 30 30"
  fill="none"
  xmlns="http://www.w3.org/2000/svg"
>
    <path
    d="M7.5 0.9375C7.5 0.68886 7.40123 0.450403 7.22541 0.274587C7.0496 0.0987721 6.81114 0 6.5625 0C6.31386 0 6.0754 0.0987721 5.89959 0.274587C5.72377 0.450403 5.625 0.68886 5.625 0.9375V1.875H3.75C2.75544 1.875 1.80161 2.27009 1.09835 2.97335C0.395088 3.67661 0 4.63044 0 5.625L0 7.5H30V5.625C30 4.63044 29.6049 3.67661 28.9016 2.97335C28.1984 2.27009 27.2446 1.875 26.25 1.875H24.375V0.9375C24.375 0.68886 24.2762 0.450403 24.1004 0.274587C23.9246 0.0987721 23.6861 0 23.4375 0C23.1889 0 22.9504 0.0987721 22.7746 0.274587C22.5988 0.450403 22.5 0.68886 22.5 0.9375V1.875H7.5V0.9375ZM30 26.25V9.375H0V26.25C0 27.2446 0.395088 28.1984 1.09835 28.9016C1.80161 29.6049 2.75544 30 3.75 30H26.25C27.2446 30 28.1984 29.6049 28.9016 28.9016C29.6049 28.1984 30 27.2446 30 26.25ZM23.4375 13.125H25.3125C25.5611 13.125 25.7996 13.2238 25.9754 13.3996C26.1512 13.5754 26.25 13.8139 26.25 14.0625V15.9375C26.25 16.1861 26.1512 16.4246 25.9754 16.6004C25.7996 16.7762 25.5611 16.875 25.3125 16.875H23.4375C23.1889 16.875 22.9504 16.7762 22.7746 16.6004C22.5988 16.4246 22.5 16.1861 22.5 15.9375V14.0625C22.5 13.8139 22.5988 13.5754 22.7746 13.3996C22.9504 13.2238 23.1889 13.125 23.4375 13.125Z"
    fill="white"
  />
    </svg>
