<svg
  width="15"
  height="15"
  viewBox="0 0 15 15"
  fill="none"
  xmlns="http://www.w3.org/2000/svg"
>
  <path
    d="M0.419325 0.419325C0.687899 0.150831 1.05212 0 1.43188 0C1.81164 0 2.17586 0.150831 2.44444 0.419325L7.50865 5.48354L12.5729 0.419325C12.843 0.15844 13.2047 0.0140841 13.5803 0.0173472C13.9558 0.0206103 14.315 0.171232 14.5805 0.436771C14.8461 0.70231 14.9967 1.06152 14.9999 1.43703C15.0032 1.81255 14.8589 2.17432 14.598 2.44444L9.53376 7.50865L14.598 12.5729C14.8589 12.843 15.0032 13.2047 14.9999 13.5803C14.9967 13.9558 14.8461 14.315 14.5805 14.5805C14.315 14.8461 13.9558 14.9967 13.5803 14.9999C13.2047 15.0032 12.843 14.8589 12.5729 14.598L7.50865 9.53376L2.44444 14.598C2.17432 14.8589 1.81255 15.0032 1.43703 14.9999C1.06152 14.9967 0.70231 14.8461 0.436771 14.5805C0.171232 14.315 0.0206103 13.9558 0.0173472 13.5803C0.0140841 13.2047 0.15844 12.843 0.419325 12.5729L5.48354 7.50865L0.419325 2.44444C0.150831 2.17586 0 1.81164 0 1.43188C0 1.05212 0.150831 0.687899 0.419325 0.419325V0.419325Z"
    fill="currentColor"
  />
  </svg>
