<svg
  width="27"
  height="27"
  viewBox="0 0 27 27"
  fill="none"
  xmlns="http://www.w3.org/2000/svg"
>
    <path
    d="M12.439 0.0417701C15.1645 -0.173112 17.8911 0.444618 20.2579 1.81322C22.6247 3.18183 24.5202 5.2368 25.6935 7.70622C26.8669 10.1757 27.2628 12.9431 26.8289 15.6425C26.395 18.3419 25.1517 20.8459 23.2636 22.8232C21.3755 24.8005 18.9315 26.158 16.255 26.7159C13.5785 27.2738 10.7957 27.006 8.27479 25.9478C5.75387 24.8896 3.61366 23.0909 2.13735 20.7897C0.661036 18.4886 -0.0817937 15.7934 0.00714804 13.0608C0.0121342 12.8946 0.0498075 12.731 0.118018 12.5794C0.186228 12.4277 0.283639 12.291 0.404689 12.177C0.525738 12.063 0.668057 11.974 0.823517 11.915C0.978978 11.856 1.14454 11.8282 1.31074 11.8332C1.47694 11.8382 1.64054 11.8758 1.79218 11.944C1.94383 12.0122 2.08055 12.1097 2.19455 12.2307C2.30855 12.3518 2.39759 12.4941 2.45659 12.6495C2.51558 12.805 2.54338 12.9706 2.5384 13.1368C2.45288 15.7235 3.28478 18.2571 4.887 20.2896C6.48921 22.3221 8.75853 23.7227 11.2937 24.2435C13.8288 24.7644 16.4665 24.372 18.7403 23.1358C21.0141 21.8996 22.7775 19.8992 23.7188 17.4884C24.66 15.0775 24.7185 12.4114 23.8838 9.96161C23.0491 7.5118 21.375 5.43605 19.1576 4.10141C16.9401 2.76676 14.3222 2.2592 11.7666 2.66846C9.21109 3.07773 6.88258 4.37746 5.19283 6.33783L4.84858 6.75633H8.86314L9.03527 6.76983C9.33819 6.81151 9.61579 6.96145 9.81673 7.19194C10.0177 7.42242 10.1284 7.71786 10.1284 8.02364C10.1284 8.32942 10.0177 8.62486 9.81673 8.85535C9.61579 9.08583 9.33819 9.23577 9.03527 9.27745L8.86314 9.28926H2.11315L1.94102 9.27745C1.66739 9.23988 1.41356 9.11383 1.21826 8.91852C1.02296 8.72322 0.896908 8.4694 0.859335 8.19577L0.847522 8.02364V1.27364L0.859335 1.10152C0.896908 0.827889 1.02296 0.574061 1.21826 0.37876C1.41356 0.183458 1.66739 0.0574058 1.94102 0.0198326L2.11315 0.00802017L2.28527 0.0198326C2.5589 0.0574058 2.81273 0.183458 3.00803 0.37876C3.20333 0.574061 3.32939 0.827889 3.36696 1.10152L3.37877 1.27364L3.37708 4.56933C5.69325 1.93843 8.94429 0.314725 12.439 0.0434575V0.0417701ZM13.0768 6.75633L13.249 6.76814C13.5226 6.80571 13.7764 6.93177 13.9717 7.12707C14.167 7.32237 14.2931 7.5762 14.3306 7.84983L14.3425 8.02195V13.4979L17.2956 13.4996L17.4677 13.5114C17.7719 13.5517 18.0511 13.7012 18.2533 13.932C18.4556 14.1628 18.5671 14.4592 18.5671 14.766C18.5671 15.0729 18.4556 15.3693 18.2533 15.6001C18.0511 15.8309 17.7719 15.9804 17.4677 16.0207L17.2956 16.0308H13.0768L12.9047 16.0207C12.6308 15.983 12.3768 15.8567 12.1815 15.6611C11.9862 15.4655 11.8602 15.2113 11.823 14.9373L11.8112 14.7652V8.02195L11.823 7.84983C11.8606 7.5762 11.9866 7.32237 12.1819 7.12707C12.3772 6.93177 12.6311 6.80571 12.9047 6.76814L13.0768 6.75633Z"
    fill="white"
  />
    </svg>
