<svg
  width="15"
  height="15"
  viewBox="0 0 15 15"
  fill="none"
  xmlns="http://www.w3.org/2000/svg"
>
    <path
    d="M7.5 15C9.48912 15 11.3968 14.2098 12.8033 12.8033C14.2098 11.3968 15 9.48912 15 7.5C15 5.51088 14.2098 3.60322 12.8033 2.1967C11.3968 0.790176 9.48912 0 7.5 0C5.51088 0 3.60322 0.790176 2.1967 2.1967C0.790176 3.60322 0 5.51088 0 7.5C0 9.48912 0.790176 11.3968 2.1967 12.8033C3.60322 14.2098 5.51088 15 7.5 15ZM8.37188 6.17625L7.43437 10.5872C7.36875 10.9059 7.46156 11.0869 7.71938 11.0869C7.90125 11.0869 8.17594 11.0212 8.3625 10.8562L8.28 11.2463C8.01094 11.5706 7.4175 11.8069 6.90656 11.8069C6.2475 11.8069 5.96719 11.4113 6.14906 10.5703L6.84094 7.31906C6.90094 7.04437 6.84656 6.945 6.57188 6.87844L6.14906 6.8025L6.22594 6.44531L8.37281 6.17625H8.37188ZM7.5 5.15625C7.25136 5.15625 7.0129 5.05748 6.83709 4.88166C6.66127 4.70585 6.5625 4.46739 6.5625 4.21875C6.5625 3.97011 6.66127 3.73165 6.83709 3.55584C7.0129 3.38002 7.25136 3.28125 7.5 3.28125C7.74864 3.28125 7.9871 3.38002 8.16291 3.55584C8.33873 3.73165 8.4375 3.97011 8.4375 4.21875C8.4375 4.46739 8.33873 4.70585 8.16291 4.88166C7.9871 5.05748 7.74864 5.15625 7.5 5.15625Z"
    fill="currentColor"
  />
    </svg>
