<svg
  width="20"
  height="21"
  viewBox="0 0 20 21"
  fill="none"
  xmlns="http://www.w3.org/2000/svg"
>
    <path
    d="M3.50638 12.9997C4.38104 12.9971 5.22261 12.6651 5.86338 12.0697L12.1234 15.6467C11.9136 16.4663 12.0061 17.3341 12.3838 18.0911C12.7616 18.8481 13.3993 19.4437 14.1803 19.7689C14.9614 20.0941 15.8334 20.1272 16.6368 19.862C17.4401 19.5969 18.1212 19.0512 18.5551 18.325C18.9891 17.5987 19.147 16.7405 18.9999 15.9074C18.8528 15.0742 18.4105 14.322 17.7541 13.7882C17.0977 13.2545 16.271 12.9751 15.4254 13.0011C14.5798 13.027 13.7718 13.3567 13.1494 13.9297L6.88938 10.3527C6.95538 10.1027 6.99138 9.84372 6.99738 9.58472L13.1474 6.06972C13.7396 6.60849 14.499 6.92722 15.2983 6.97244C16.0976 7.01765 16.8882 6.78659 17.5374 6.31804C18.1865 5.84948 18.6548 5.17192 18.8636 4.39904C19.0724 3.62616 19.0091 2.80498 18.6842 2.07325C18.3594 1.34153 17.7927 0.743793 17.0794 0.380316C16.3661 0.0168389 15.5494 -0.0902617 14.7665 0.0769818C13.9836 0.244225 13.282 0.675638 12.7794 1.29884C12.2769 1.92205 12.0039 2.69913 12.0064 3.49972C12.0104 3.78772 12.0494 4.07472 12.1234 4.35272L6.43938 7.59972C6.10976 7.08978 5.65315 6.67437 5.1144 6.39429C4.57566 6.11422 3.97332 5.97912 3.36656 6.00227C2.7598 6.02542 2.16951 6.20602 1.65367 6.52633C1.13783 6.84664 0.714197 7.29564 0.424389 7.82921C0.13458 8.36279 -0.011432 8.96257 0.000698694 9.56965C0.0128294 10.1767 0.182685 10.7702 0.493578 11.2918C0.80447 11.8133 1.2457 12.2451 1.77393 12.5445C2.30215 12.844 2.89919 13.0008 3.50638 12.9997Z"
    fill="white"
  />
    </svg>
