<svg
  width="27"
  height="18"
  viewBox="0 0 27 18"
  fill="none"
  xmlns="http://www.w3.org/2000/svg"
>
    <path
    d="M1.34865 15.4286H17.5504C17.8946 15.4289 18.2256 15.5544 18.4758 15.7794C18.726 16.0043 18.8766 16.3118 18.8968 16.6389C18.9169 16.9661 18.8052 17.2882 18.5843 17.5395C18.3634 17.7908 18.0501 17.9523 17.7084 17.991L17.5504 18H1.34865C1.00453 17.9996 0.673536 17.8742 0.423304 17.6492C0.173073 17.4242 0.0224897 17.1168 0.00232231 16.7896C-0.017845 16.4625 0.0939255 16.1404 0.314797 15.8891C0.535668 15.6378 0.848969 15.4763 1.19069 15.4376L1.34865 15.4286H17.5504H1.34865ZM1.34865 10.2857H25.6513C25.9955 10.2861 26.3265 10.4116 26.5767 10.6365C26.8269 10.8615 26.9775 11.1689 26.9977 11.4961C27.0178 11.8232 26.9061 12.1453 26.6852 12.3966C26.4643 12.6479 26.151 12.8094 25.8093 12.8481L25.6513 12.8571H1.34865C1.00453 12.8568 0.673536 12.7313 0.423304 12.5063C0.173073 12.2814 0.0224897 11.9739 0.00232231 11.6468C-0.017845 11.3196 0.0939255 10.9975 0.314797 10.7462C0.535668 10.4949 0.848969 10.3334 1.19069 10.2947L1.34865 10.2857H25.6513H1.34865ZM1.34865 5.14286H25.6513C25.9955 5.14322 26.3265 5.2687 26.5767 5.49366C26.8269 5.71862 26.9775 6.02608 26.9977 6.35322C27.0178 6.68036 26.9061 7.00249 26.6852 7.25378C26.4643 7.50508 26.151 7.66658 25.8093 7.70529L25.6513 7.71429H1.34865C1.00453 7.71392 0.673536 7.58844 0.423304 7.36348C0.173073 7.13852 0.0224897 6.83106 0.00232231 6.50392C-0.017845 6.17678 0.0939255 5.85466 0.314797 5.60336C0.535668 5.35206 0.848969 5.19056 1.19069 5.15186L1.34865 5.14286H25.6513H1.34865ZM1.34865 0L25.6513 0C25.9955 0.000363481 26.3265 0.125844 26.5767 0.350805C26.8269 0.575765 26.9775 0.883225 26.9977 1.21036C27.0178 1.5375 26.9061 1.85963 26.6852 2.11093C26.4643 2.36222 26.151 2.52372 25.8093 2.56243L25.6513 2.57143H1.34865C1.00453 2.57107 0.673536 2.44558 0.423304 2.22062C0.173073 1.99566 0.0224897 1.6882 0.00232231 1.36106C-0.017845 1.03392 0.0939255 0.711798 0.314797 0.460501C0.535668 0.209204 0.848969 0.0477046 1.19069 0.00899996L1.34865 0L25.6513 0L1.34865 0Z"
    fill="white"
  />
    </svg>
