<svg
  width="20"
  height="26"
  viewBox="0 0 20 26"
  fill="none"
  xmlns="http://www.w3.org/2000/svg"
>
    <path
    d="M9.99998 26C8.19561 24.4441 6.52312 22.7384 4.99999 20.9007C2.71428 18.1409 1.25556e-06 14.0308 1.25556e-06 10.1142C-0.000990025 8.11399 0.585012 6.15842 1.68384 4.49501C2.78268 2.83159 4.34495 1.5351 6.17294 0.769605C8.00093 0.00411112 10.0125 -0.195973 11.953 0.194676C13.8935 0.585324 15.6758 1.54914 17.0742 2.96416C18.0053 3.90122 18.7433 5.01564 19.2455 6.24295C19.7477 7.47025 20.0041 8.78606 20 10.1142C20 14.0308 17.2857 18.1409 15 20.9007C13.4768 22.7384 11.8043 24.4441 9.99998 26ZM9.99998 5.78172C8.86334 5.78172 7.77325 6.23818 6.96953 7.05068C6.1658 7.86318 5.71427 8.96516 5.71427 10.1142C5.71427 11.2633 6.1658 12.3652 6.96953 13.1777C7.77325 13.9902 8.86334 14.4467 9.99998 14.4467C11.1366 14.4467 12.2267 13.9902 13.0304 13.1777C13.8342 12.3652 14.2857 11.2633 14.2857 10.1142C14.2857 8.96516 13.8342 7.86318 13.0304 7.05068C12.2267 6.23818 11.1366 5.78172 9.99998 5.78172Z"
    fill="white"
  />
    </svg>
