<svg
  width="18"
  height="18"
  viewBox="0 0 18 18"
  fill="none"
  xmlns="http://www.w3.org/2000/svg"
>
    <path
    d="M17.4777 0.530349C17.3111 0.361859 17.1127 0.228197 16.8939 0.137146C16.6752 0.046095 16.4405 -0.000523948 16.2036 4.44181e-06L11.2645 4.44181e-06C10.9405 0.000608507 10.6298 0.128952 10.3999 0.357183L0.526131 10.2288C0.189218 10.5664 0 11.0239 0 11.5008C0 11.9778 0.189218 12.4353 0.526131 12.7729L5.22696 17.4736C5.56465 17.8107 6.02228 18 6.4994 18C6.97652 18 7.43415 17.8107 7.77184 17.4736L17.6416 7.60602C17.8703 7.37644 17.9991 7.06585 18 6.7418V1.79996C18.0014 1.56428 17.956 1.33066 17.8663 1.11269C17.7767 0.894729 17.6445 0.696775 17.4777 0.530349V0.530349ZM14.1429 5.14274C13.8886 5.14274 13.64 5.06733 13.4286 4.92606C13.2171 4.78479 13.0524 4.58399 12.955 4.34906C12.8577 4.11413 12.8323 3.85563 12.8819 3.60623C12.9315 3.35683 13.0539 3.12774 13.2337 2.94794C13.4136 2.76813 13.6426 2.64568 13.892 2.59607C14.1414 2.54647 14.4 2.57193 14.6349 2.66924C14.8698 2.76655 15.0706 2.93134 15.2119 3.14277C15.3532 3.3542 15.4286 3.60277 15.4286 3.85705C15.4286 4.19804 15.2931 4.52506 15.052 4.76617C14.8109 5.00728 14.4839 5.14274 14.1429 5.14274Z"
    fill="white"
  />
    </svg>
