<svg fill="currentColor" xmlns="http://www.w3.org/2000/svg"  viewBox="0 0 512 512" width="64px" height="64px"><path d="M348.479,49.576h-.155l-28.517.143a66.176,66.176,0,0,1-63.024,46.1c-.308,0-.611,0-.92-.007a67.462,67.462,0,0,1-63.558-46.092l-28.63-.144h-.155a30,30,0,0,0-30,30V432.425a30.034,30.034,0,0,0,30,30h22.2A67.2,67.2,0,0,1,250.5,410.614c.285,0,.571-.006.855-.006,31.065,0,57.647,22,64.28,51.816h32.843a30.034,30.034,0,0,0,30-30V79.577a30,30,0,0,0-30-30ZM218,220.9h76a10,10,0,0,1,0,20H218a10,10,0,0,1,0-20Zm86,70H208a10,10,0,0,1,0-20h96a10,10,0,0,1,0,20Z"/></svg>