<svg
  width="13"
  height="11"
  viewBox="0 0 13 11"
  fill="none"
  xmlns="http://www.w3.org/2000/svg"
>
    <path
    d="M7.4158 5.18712L11.7158 1.48086C11.9041 1.31818 12.0099 1.09753 12.0099 0.867466C12.0099 0.6374 11.9041 0.416756 11.7158 0.254075C11.5275 0.0913935 11.2721 0 11.0058 0C10.7395 0 10.4841 0.0913935 10.2958 0.254075L6.0058 3.96898L1.7158 0.254075C1.52749 0.0913935 1.2721 -1.71413e-09 1.0058 0C0.739497 1.71413e-09 0.484102 0.0913935 0.295798 0.254075C0.107495 0.416756 0.0017066 0.6374 0.0017066 0.867466C0.0017066 1.09753 0.107495 1.31818 0.295798 1.48086L4.5958 5.18712L0.295798 8.89338C0.20207 8.9737 0.127676 9.06925 0.0769072 9.17453C0.0261385 9.2798 0 9.39272 0 9.50677C0 9.62082 0.0261385 9.73374 0.0769072 9.83902C0.127676 9.9443 0.20207 10.0398 0.295798 10.1202C0.388761 10.2011 0.499362 10.2654 0.621222 10.3093C0.743081 10.3531 0.873786 10.3757 1.0058 10.3757C1.13781 10.3757 1.26852 10.3531 1.39038 10.3093C1.51223 10.2654 1.62284 10.2011 1.7158 10.1202L6.0058 6.40526L10.2958 10.1202C10.3888 10.2011 10.4994 10.2654 10.6212 10.3093C10.7431 10.3531 10.8738 10.3757 11.0058 10.3757C11.1378 10.3757 11.2685 10.3531 11.3904 10.3093C11.5122 10.2654 11.6228 10.2011 11.7158 10.1202C11.8095 10.0398 11.8839 9.9443 11.9347 9.83902C11.9855 9.73374 12.0116 9.62082 12.0116 9.50677C12.0116 9.39272 11.9855 9.2798 11.9347 9.17453C11.8839 9.06925 11.8095 8.9737 11.7158 8.89338L7.4158 5.18712Z"
    fill="currentColor"
  />
    </svg>
