<svg xmlns="http://www.w3.org/2000/svg"  viewBox="0 0 32 32" width="32px" height="32px"><path fill="currentColor" d="M6.036,16.187c0.012,0.063,0.018,0.126,0.042,0.186c0.025,0.062,0.068,0.114,0.106,0.171	c0.031,0.046,0.047,0.098,0.086,0.139c0.007,0.008,0.018,0.01,0.025,0.018c0.008,0.008,0.011,0.02,0.02,0.028l16,15	C22.509,31.91,22.755,32,23,32c0.267,0,0.533-0.106,0.729-0.316c0.378-0.402,0.357-1.035-0.045-1.413L8.462,16L23.684,1.729	c0.403-0.378,0.423-1.011,0.045-1.413c-0.378-0.403-1.011-0.423-1.414-0.046l-16,15c-0.009,0.008-0.011,0.019-0.02,0.027	c-0.008,0.008-0.018,0.01-0.026,0.018c-0.039,0.042-0.056,0.093-0.086,0.139c-0.038,0.057-0.081,0.109-0.106,0.171	c-0.024,0.06-0.03,0.123-0.042,0.186c-0.012,0.063-0.03,0.123-0.03,0.187C6.006,16.064,6.024,16.124,6.036,16.187z"/></svg>