<svg fill="currentColor" xmlns="http://www.w3.org/2000/svg"  viewBox="0 0 24 24" width="24px" height="24px"><path d="M 15.90625 0 L 12.3125 9 L 23.90625 9 C 23.507813 4.5 20.304688 1.199219 15.90625 0 Z M 1.3125 6 C 1.28125 6.007813 1.25 6.019531 1.21875 6.03125 C 1.210938 6.03125 1.195313 6.027344 1.1875 6.03125 C 1.132813 6.046875 1.082031 6.070313 1.03125 6.09375 C 0.429688 6.289063 0 6.832031 0 7.5 C 0 8.328125 0.671875 9 1.5 9 C 1.914063 9 2.292969 8.832031 2.5625 8.5625 C 2.816406 8.875 3 9.335938 3 10 C 2.996094 10.042969 2.996094 10.082031 3 10.125 C 3.054688 13.867188 5.464844 16.792969 8.9375 18.15625 C 8.644531 18.0625 8.332031 18 8 18 C 6.300781 18 5 19.300781 5 21 C 5 22.699219 6.300781 24 8 24 C 9.699219 24 11 22.699219 11 21 C 11 19.816406 10.359375 18.835938 9.40625 18.34375 C 10.664063 18.773438 12.050781 19 13.5 19 C 15.011719 19 16.449219 18.722656 17.75 18.25 C 16.703125 18.710938 16 19.75 16 21 C 16 22.699219 17.300781 24 19 24 C 20.699219 24 22 22.699219 22 21 C 22 19.300781 20.699219 18 19 18 C 18.609375 18 18.242188 18.0625 17.90625 18.1875 C 21.5 16.8125 24 13.789063 24 10 L 5 10 C 5 7.535156 3.207031 6 1.5 6 C 1.46875 6 1.4375 6 1.40625 6 C 1.375 6 1.34375 6 1.3125 6 Z M 8 20 C 8.601563 20 9 20.398438 9 21 C 9 21.601563 8.601563 22 8 22 C 7.398438 22 7 21.601563 7 21 C 7 20.398438 7.398438 20 8 20 Z M 19 20 C 19.601563 20 20 20.398438 20 21 C 20 21.601563 19.601563 22 19 22 C 18.398438 22 18 21.601563 18 21 C 18 20.398438 18.398438 20 19 20 Z"/></svg>