<svg
  fill="currentColor"
  xmlns="http://www.w3.org/2000/svg"
  viewBox="0 0 48 48"
  width="48px"
  height="48px"
><path
    d="M 33.5 4 C 33.135 4 32.788922 4.1529219 32.544922 4.4199219 L 24.830078 12.882812 C 24.490078 13.255812 24.404328 13.789094 24.611328 14.246094 C 24.818328 14.704094 25.277156 15 25.785156 15 L 29 15 L 29 24 C 29 24.828 28.328 25.5 27.5 25.5 L 22 25.5 L 22 31 L 32.5 31 C 35.538 31 38 28.538 38 25.5 L 38 15 L 41.214844 15 C 41.722844 15 42.182672 14.704094 42.388672 14.246094 C 42.595672 13.788094 42.509922 13.254812 42.169922 12.882812 L 34.455078 4.4199219 C 34.211078 4.1529219 33.865 4 33.5 4 z M 15.5 17 C 12.462 17 10 19.462 10 22.5 L 10 33 L 6.7851562 33 C 6.2771562 33 5.8173281 33.295906 5.6113281 33.753906 C 5.4043281 34.211906 5.4900781 34.746141 5.8300781 35.119141 L 13.544922 43.580078 C 13.787922 43.847078 14.135 44 14.5 44 C 14.865 44 15.211078 43.847078 15.455078 43.580078 L 23.169922 35.119141 C 23.509922 34.746141 23.595672 34.211906 23.388672 33.753906 C 23.181672 33.295906 22.722844 33 22.214844 33 L 19 33 L 19 24 C 19 23.172 19.672 22.5 20.5 22.5 L 26 22.5 L 26 17 L 15.5 17 z"
  /></svg>
