<svg
  width="31"
  height="28"
  viewBox="0 0 31 28"
  fill="none"
  xmlns="http://www.w3.org/2000/svg"
>
    <path
    d="M29.94 10.0006H28V5.00062C28 4.73541 27.8946 4.48105 27.7071 4.29352C27.5196 4.10598 27.2652 4.00062 27 4.00062H3C2.73478 4.00062 2.48043 3.89527 2.29289 3.70773C2.10536 3.52019 2 3.26584 2 3.00062C2 2.73541 2.10536 2.48105 2.29289 2.29352C2.48043 2.10598 2.73478 2.00062 3 2.00062H26.6C26.8652 2.00062 27.1196 1.89527 27.3071 1.70773C27.4946 1.52019 27.6 1.26584 27.6 1.00062C27.6 0.735408 27.4946 0.481054 27.3071 0.293518C27.1196 0.105982 26.8652 0.000624652 26.6 0.000624652H3C2.61389 -0.00733553 2.23 0.060852 1.87025 0.201292C1.5105 0.341732 1.18195 0.551673 0.903357 0.819121C0.624765 1.08657 0.401594 1.40629 0.246593 1.76C0.0915928 2.11372 0.00779937 2.49451 0 2.88062V23.8806C0.00130889 24.4238 0.109764 24.9614 0.319154 25.4627C0.528544 25.9639 0.834755 26.4189 1.22025 26.8016C1.60575 27.1843 2.06295 27.4872 2.56568 27.693C3.06842 27.8987 3.6068 28.0033 4.15 28.0006H27C27.2652 28.0006 27.5196 27.8953 27.7071 27.7077C27.8946 27.5202 28 27.2658 28 27.0006V22.0006H29.94C30.0662 22.0102 30.1931 21.9939 30.3128 21.9527C30.4324 21.9115 30.5425 21.8463 30.6361 21.7611C30.7297 21.6759 30.805 21.5725 30.8572 21.4572C30.9095 21.3419 30.9376 21.2172 30.94 21.0906V11.0906C30.9433 10.8158 30.8417 10.5501 30.6559 10.3476C30.4701 10.145 30.2141 10.021 29.94 10.0006ZM29 20.0006H20.42C19.3952 19.9641 18.4267 19.5224 17.7274 18.7724C17.028 18.0224 16.6549 17.0255 16.69 16.0006C16.6549 14.9758 17.028 13.9789 17.7274 13.2289C18.4267 12.4789 19.3952 12.0371 20.42 12.0006H29V20.0006Z"
    fill="currentColor"
  />
    <path
    d="M21.04 17.4206C21.8684 17.4206 22.54 16.749 22.54 15.9206C22.54 15.0922 21.8684 14.4206 21.04 14.4206C20.2116 14.4206 19.54 15.0922 19.54 15.9206C19.54 16.749 20.2116 17.4206 21.04 17.4206Z"
    fill="currentColor"
  />
    </svg>
